<svg width="27" height="27" viewBox="0 0 27 27" fill="none" xmlns="http://www.w3.org/2000/svg">
<path d="M7.85843 22.217C8.87629 22.8046 10.1767 22.4562 10.7644 21.4383L7.07983 19.311C6.4921 20.3289 6.84059 21.6293 7.85843 22.217Z" fill="black"/>
<path d="M16.5763 19.8811L19.2354 15.2753C20.8708 12.4428 20.7289 9.21049 18.4514 7.06042L18.813 6.43407C19.2545 5.6695 18.9936 4.69603 18.2291 4.25461C17.4645 3.81319 16.491 4.07402 16.0496 4.83859L15.6879 5.46499C12.6872 4.56771 9.817 6.06091 8.18164 8.89344L5.52253 13.4992L2.61656 14.2778L2.08475 15.1989L16.8231 23.7081L17.3549 22.787L16.5763 19.8811Z" fill="black"/>
<circle cx="22.5" cy="9.5" r="4" fill="#D11919" stroke="#E2E2E2"/>
</svg>