<svg width="13" height="14" viewBox="0 0 13 14" fill="none" xmlns="http://www.w3.org/2000/svg">
<path d="M11.2584 1.42857H10.6607V0.432251H9.66433V1.42857H3.0886V0.432251H2.09228V1.42857H1.49448C0.670426 1.42857 0 2.099 0 2.92306V11.6907C0 12.5148 0.670426 13.1852 1.49448 13.1852H11.2584C12.0825 13.1852 12.7529 12.5148 12.7529 11.6907V2.92306C12.7529 2.099 12.0825 1.42857 11.2584 1.42857ZM11.7566 11.6907C11.7566 11.9654 11.5331 12.1889 11.2584 12.1889H1.49448C1.2198 12.1889 0.996323 11.9654 0.996323 11.6907V5.11497H11.7566V11.6907ZM11.7566 4.11864H0.996323V2.92306C0.996323 2.64837 1.2198 2.4249 1.49448 2.4249H2.09228V3.42122H3.0886V2.4249H9.66433V3.42122H10.6607V2.4249H11.2584C11.5331 2.4249 11.7566 2.64837 11.7566 2.92306V4.11864Z" fill="#989898"/>
<rect x="2" y="6.00006" width="1" height="1" fill="#989898"/>
<rect x="4" y="6.00006" width="1" height="1" fill="#989898"/>
<rect x="6" y="6.00006" width="1" height="1" fill="#989898"/>
<rect x="8" y="6.00006" width="1" height="1" fill="#989898"/>
<rect x="10" y="6.00006" width="1" height="1" fill="#989898"/>
<rect x="2" y="8" width="1" height="1" fill="#989898"/>
<rect x="4" y="8" width="1" height="1" fill="#989898"/>
<rect x="6" y="8" width="1" height="1" fill="#989898"/>
<rect x="8" y="8" width="1" height="1" fill="#989898"/>
<rect x="2" y="10.0001" width="1" height="1" fill="#989898"/>
<rect x="4" y="10.0001" width="1" height="1" fill="#989898"/>
<rect x="6" y="10.0001" width="1" height="1" fill="#989898"/>
<rect x="8" y="10.0001" width="1" height="1" fill="#989898"/>
<rect x="10" y="8" width="1" height="1" fill="#989898"/>
</svg>
