<svg width="50" height="50" viewBox="0 0 50 50" fill="none" xmlns="http://www.w3.org/2000/svg">
<circle cx="25" cy="25" r="25" fill="#E2E2E2"/>
<path d="M32.9913 21.2601C32.6811 20.8763 32.2201 20.6562 31.7265 20.6562H14.1004L13.943 19.5282C13.8315 18.7294 13.1392 18.127 12.3326 18.127H10.9507C10.5516 18.127 10.228 18.4505 10.228 18.8496C10.228 19.2487 10.5516 19.5723 10.9507 19.5723H12.3326C12.4222 19.5723 12.4992 19.6392 12.5115 19.7279L14.4622 33.708C14.5736 34.5069 15.2659 35.1092 16.0726 35.1092H16.8561C16.7759 35.3354 16.7318 35.5786 16.7318 35.8319C16.7318 37.0273 17.7044 37.9999 18.8998 37.9999C20.0952 37.9999 21.0677 37.0273 21.0677 35.8319C21.0677 35.5786 21.0237 35.3354 20.9435 35.1092H24.8053C24.7251 35.3354 24.681 35.5786 24.681 35.8319C24.681 37.0273 25.6536 37.9999 26.849 37.9999C28.0444 37.9999 29.0169 37.0273 29.0169 35.8319C29.0169 35.5786 28.9728 35.3354 28.8926 35.1092H30.4623C30.8613 35.1092 31.1849 34.7857 31.1849 34.3866C31.1849 33.9875 30.8613 33.664 30.4623 33.664H16.0726C15.983 33.664 15.906 33.597 15.8937 33.5083L15.7138 32.2187H29.9456C30.707 32.2187 31.3756 31.6782 31.5356 30.9333L33.3165 22.623C33.4199 22.1406 33.3014 21.6438 32.9913 21.2601ZM19.6225 35.8319C19.6225 36.2304 19.2983 36.5546 18.8998 36.5546C18.5014 36.5546 18.1772 36.2304 18.1772 35.8319C18.1772 35.4335 18.5014 35.1093 18.8998 35.1093C19.2983 35.1093 19.6225 35.4334 19.6225 35.8319ZM27.5717 35.8319C27.5717 36.2304 27.2475 36.5546 26.849 36.5546C26.4506 36.5546 26.1264 36.2304 26.1264 35.8319C26.1264 35.4335 26.4506 35.1093 26.849 35.1093C27.2475 35.1093 27.5717 35.4334 27.5717 35.8319ZM31.9033 22.32L30.1225 30.6302C30.1047 30.7131 30.0302 30.7733 29.9456 30.7733H15.5121L14.3021 22.1015H31.7264C31.7979 22.1015 31.8425 22.138 31.8672 22.1686C31.8919 22.1992 31.9182 22.2503 31.9033 22.32Z" fill="black"/>
<circle cx="34.5" cy="19.5" r="8.5" fill="black"/>
<path d="M32.4529 23V22.4247L34.6135 20.0597C34.867 19.7827 35.0758 19.5419 35.2399 19.3374C35.4039 19.1307 35.5254 18.9368 35.6042 18.7557C35.6852 18.5724 35.7257 18.3807 35.7257 18.1804C35.7257 17.9503 35.6703 17.7511 35.5595 17.5827C35.4508 17.4144 35.3017 17.2844 35.112 17.1928C34.9224 17.1012 34.7093 17.0554 34.4728 17.0554C34.2214 17.0554 34.002 17.1076 33.8145 17.212C33.6291 17.3143 33.4853 17.4581 33.383 17.6435C33.2828 17.8288 33.2328 18.0462 33.2328 18.2955H32.4785C32.4785 17.9119 32.5669 17.5753 32.7438 17.2855C32.9206 16.9957 33.1614 16.7699 33.4661 16.608C33.7729 16.446 34.117 16.3651 34.4984 16.3651C34.8819 16.3651 35.2218 16.446 35.5179 16.608C35.8141 16.7699 36.0463 16.9883 36.2147 17.2631C36.383 17.538 36.4672 17.8438 36.4672 18.1804C36.4672 18.4212 36.4235 18.6566 36.3361 18.8867C36.2509 19.1147 36.1017 19.3693 35.8887 19.6506C35.6777 19.9297 35.3848 20.2706 35.0098 20.6733L33.5396 22.2457V22.2969H36.5822V23H32.4529Z" fill="white"/>
</svg>

