<svg width="19" height="19" viewBox="0 0 19 19" fill="none" xmlns="http://www.w3.org/2000/svg">
<path d="M4.13613 11.2778L3.48654 13.7028L1.11227 13.753C0.402716 12.437 0.000244141 10.9312 0.000244141 9.3311C0.000244141 7.78378 0.376546 6.32465 1.04357 5.03986L3.15784 5.42738L4.08379 7.52846C3.88999 8.09346 3.78436 8.69998 3.78436 9.3311C3.78444 10.0161 3.90851 10.6723 4.13613 11.2778Z" fill="#FBBB00"/>
<path d="M18.4992 7.58795C18.6064 8.15242 18.6622 8.73535 18.6622 9.33112C18.6622 9.99915 18.592 10.6508 18.4582 11.2794C18.004 13.4183 16.817 15.286 15.1729 16.6078L12.51 16.4714L12.1331 14.1192C13.2242 13.4793 14.0768 12.478 14.5259 11.2794H9.53638V7.58795H14.5987H18.4992Z" fill="#518EF8"/>
<path d="M15.1724 16.6072C13.5733 17.8925 11.5425 18.6621 9.33127 18.6621C5.7778 18.6621 2.68833 16.6759 1.1123 13.7531L4.13617 11.2778C4.92416 13.3809 6.95289 14.8779 9.33127 14.8779C10.3536 14.8779 11.3113 14.6016 12.1331 14.1191L15.1724 16.6072Z" fill="#28B446"/>
<path d="M15.2871 2.14829L12.2642 4.62305C11.4137 4.0914 10.4083 3.78428 9.33113 3.78428C6.89891 3.78428 4.83224 5.35003 4.08372 7.52848L1.04397 5.03988C2.59692 2.04576 5.72485 0.00012207 9.33113 0.00012207C11.5952 0.00012207 13.6711 0.806597 15.2871 2.14829Z" fill="#F14336"/>
</svg>
