<svg width="25" height="25" viewBox="0 0 25 25" fill="none" xmlns="http://www.w3.org/2000/svg">
<path d="M19.0766 4.60327C18.2651 4.60327 17.6071 5.26123 17.6071 6.07275C17.6071 6.88428 18.2651 7.54236 19.0766 7.54236C19.8888 7.54236 20.5468 6.88428 20.5468 6.07275C20.5468 5.26123 19.8888 4.60327 19.0766 4.60327ZM12.5426 6.48798C9.13882 6.48798 6.36865 9.25739 6.36865 12.6612C6.36865 16.0657 9.13882 18.8352 12.5426 18.8352C15.9471 18.8352 18.7165 16.0657 18.7165 12.6612C18.7165 9.25739 15.9471 6.48798 12.5426 6.48798ZM12.5426 16.6162C10.362 16.6162 8.58755 14.8425 8.58755 12.6612C8.58755 10.4807 10.362 8.70691 12.5426 8.70691C14.7238 8.70691 16.4976 10.4807 16.4976 12.6612C16.4976 14.8425 14.7238 16.6162 12.5426 16.6162ZM25 7.53046C25 3.3717 21.6291 0 17.4696 0H7.53116C3.37167 0 0 3.3717 0 7.53046V17.4703C0 21.629 3.37167 25.0001 7.53116 25.0001H17.4696C21.6291 25.0001 25 21.629 25 17.4703V7.53046ZM22.6415 17.4703C22.6415 20.3264 20.3263 22.6415 17.4696 22.6415H7.53116C4.67444 22.6415 2.35852 20.3264 2.35852 17.4703V7.53046C2.35852 4.67444 4.67444 2.35852 7.53116 2.35852H17.4696C20.3263 2.35852 22.6415 4.67444 22.6415 7.53046V17.4703Z" fill="white"/>
</svg>
