<svg width="84" height="13" viewBox="0 0 84 13" fill="none" xmlns="http://www.w3.org/2000/svg">
<path d="M0.838778 0.363636H2.5206L6.47514 10.0227H6.61151L10.5661 0.363636H12.2479V12H10.9297V3.15909H10.8161L7.17969 12H5.90696L2.2706 3.15909H2.15696V12H0.838778V0.363636ZM17.4595 12.2045C16.9065 12.2045 16.4046 12.1004 15.9538 11.892C15.5031 11.6799 15.1451 11.375 14.88 10.9773C14.6148 10.5758 14.4822 10.0909 14.4822 9.52273C14.4822 9.02273 14.5807 8.61742 14.7777 8.30682C14.9747 7.99242 15.2379 7.74621 15.5675 7.56818C15.897 7.39015 16.2607 7.25758 16.6584 7.17045C17.0599 7.07955 17.4633 7.00758 17.8686 6.95455C18.3989 6.88636 18.8288 6.83523 19.1584 6.80114C19.4917 6.76326 19.7341 6.70076 19.8857 6.61364C20.041 6.52652 20.1186 6.375 20.1186 6.15909V6.11364C20.1186 5.55303 19.9652 5.11742 19.6584 4.80682C19.3554 4.49621 18.8951 4.34091 18.2777 4.34091C17.6375 4.34091 17.1357 4.48106 16.772 4.76136C16.4084 5.04167 16.1527 5.34091 16.005 5.65909L14.7322 5.20455C14.9595 4.67424 15.2625 4.26136 15.6413 3.96591C16.0239 3.66667 16.4406 3.45833 16.8913 3.34091C17.3459 3.2197 17.7929 3.15909 18.2322 3.15909C18.5125 3.15909 18.8345 3.19318 19.1982 3.26136C19.5656 3.32576 19.9197 3.46023 20.2607 3.66477C20.6054 3.86932 20.8913 4.17803 21.1186 4.59091C21.3459 5.00379 21.4595 5.55682 21.4595 6.25V12H20.1186V10.8182H20.0504C19.9595 11.0076 19.808 11.2102 19.5959 11.4261C19.3838 11.642 19.1016 11.8258 18.7493 11.9773C18.397 12.1288 17.9671 12.2045 17.4595 12.2045ZM17.6641 11C18.1944 11 18.6413 10.8958 19.005 10.6875C19.3724 10.4792 19.6489 10.2102 19.8345 9.88068C20.0239 9.55114 20.1186 9.20455 20.1186 8.84091V7.61364C20.0618 7.68182 19.9368 7.74432 19.7436 7.80114C19.5542 7.85417 19.3345 7.90151 19.0845 7.94318C18.8383 7.98106 18.5978 8.01515 18.3629 8.04545C18.1319 8.07197 17.9444 8.0947 17.8004 8.11364C17.4519 8.15909 17.1262 8.23295 16.8232 8.33523C16.5239 8.43371 16.2815 8.58333 16.0959 8.78409C15.9141 8.98106 15.8232 9.25 15.8232 9.59091C15.8232 10.0568 15.9955 10.4091 16.3402 10.6477C16.6887 10.8826 17.13 11 17.6641 11ZM30.0888 5.22727L28.8842 5.56818C28.8085 5.36742 28.6967 5.17235 28.549 4.98295C28.4051 4.78977 28.2081 4.63068 27.9581 4.50568C27.7081 4.38068 27.388 4.31818 26.9979 4.31818C26.4638 4.31818 26.0187 4.44129 25.6626 4.6875C25.3104 4.92992 25.1342 5.23864 25.1342 5.61364C25.1342 5.94697 25.2554 6.21023 25.4979 6.40341C25.7403 6.59659 26.1191 6.75758 26.6342 6.88636L27.9297 7.20455C28.71 7.39394 29.2914 7.68371 29.674 8.07386C30.0566 8.46023 30.2479 8.95833 30.2479 9.56818C30.2479 10.0682 30.1039 10.5152 29.8161 10.9091C29.532 11.303 29.1342 11.6136 28.6229 11.8409C28.1115 12.0682 27.5168 12.1818 26.8388 12.1818C25.9486 12.1818 25.2119 11.9886 24.6286 11.6023C24.0452 11.2159 23.6759 10.6515 23.5206 9.90909L24.7933 9.59091C24.9145 10.0606 25.1437 10.4129 25.4808 10.6477C25.8217 10.8826 26.2668 11 26.8161 11C27.4411 11 27.9373 10.8674 28.3047 10.6023C28.6759 10.3333 28.8615 10.0114 28.8615 9.63636C28.8615 9.33333 28.7554 9.07955 28.5433 8.875C28.3312 8.66667 28.0054 8.51136 27.5661 8.40909L26.1115 8.06818C25.3123 7.87879 24.7251 7.58523 24.3501 7.1875C23.9789 6.78598 23.7933 6.28409 23.7933 5.68182C23.7933 5.18939 23.9316 4.75379 24.2081 4.375C24.4884 3.99621 24.8691 3.69886 25.3501 3.48295C25.835 3.26705 26.3842 3.15909 26.9979 3.15909C27.8615 3.15909 28.5395 3.34848 29.032 3.72727C29.5282 4.10606 29.8804 4.60606 30.0888 5.22727ZM36.0618 3.27273V4.40909H31.5391V3.27273H36.0618ZM32.8572 1.18182H34.1982V9.5C34.1982 9.87879 34.2531 10.1629 34.3629 10.3523C34.4766 10.5379 34.6205 10.6629 34.7947 10.7273C34.9728 10.7879 35.1603 10.8182 35.3572 10.8182C35.505 10.8182 35.6262 10.8106 35.7209 10.7955C35.8156 10.7765 35.8913 10.7614 35.9482 10.75L36.2209 11.9545C36.13 11.9886 36.0031 12.0227 35.8402 12.0568C35.6773 12.0947 35.4709 12.1136 35.2209 12.1136C34.8421 12.1136 34.4709 12.0322 34.1072 11.8693C33.7474 11.7064 33.4482 11.4583 33.2095 11.125C32.9747 10.7917 32.8572 10.3712 32.8572 9.86364V1.18182ZM41.6442 12.1818C40.8033 12.1818 40.0779 11.9962 39.468 11.625C38.862 11.25 38.3942 10.7273 38.0646 10.0568C37.7389 9.38258 37.576 8.59848 37.576 7.70455C37.576 6.81061 37.7389 6.02273 38.0646 5.34091C38.3942 4.6553 38.8525 4.12121 39.4396 3.73864C40.0305 3.35227 40.7199 3.15909 41.5078 3.15909C41.9624 3.15909 42.4112 3.23485 42.8544 3.38636C43.2976 3.53788 43.701 3.78409 44.0646 4.125C44.4283 4.46212 44.718 4.90909 44.9339 5.46591C45.1499 6.02273 45.2578 6.70833 45.2578 7.52273V8.09091H38.5305V6.93182H43.8942C43.8942 6.43939 43.7957 6 43.5987 5.61364C43.4055 5.22727 43.129 4.92235 42.7692 4.69886C42.4131 4.47538 41.9927 4.36364 41.5078 4.36364C40.9737 4.36364 40.5116 4.49621 40.1214 4.76136C39.7351 5.02273 39.4377 5.36364 39.2294 5.78409C39.0211 6.20455 38.9169 6.6553 38.9169 7.13636V7.90909C38.9169 8.56818 39.0305 9.12689 39.2578 9.58523C39.4889 10.0398 39.8089 10.3864 40.218 10.625C40.6271 10.8598 41.1025 10.9773 41.6442 10.9773C41.9964 10.9773 42.3146 10.928 42.5987 10.8295C42.8866 10.7273 43.1347 10.5758 43.343 10.375C43.5514 10.1705 43.7124 9.91667 43.826 9.61364L45.1214 9.97727C44.9851 10.4167 44.7559 10.803 44.4339 11.1364C44.112 11.4659 43.7143 11.7235 43.2408 11.9091C42.7673 12.0909 42.2351 12.1818 41.6442 12.1818ZM47.2976 12V3.27273H48.593V4.59091H48.6839C48.843 4.15909 49.1309 3.80871 49.5476 3.53977C49.9643 3.27083 50.4339 3.13636 50.9567 3.13636C51.0552 3.13636 51.1783 3.13826 51.326 3.14205C51.4737 3.14583 51.5855 3.15152 51.6612 3.15909V4.52273C51.6158 4.51136 51.5116 4.49432 51.3487 4.47159C51.1896 4.44508 51.0211 4.43182 50.843 4.43182C50.4188 4.43182 50.04 4.52083 49.7067 4.69886C49.3771 4.87311 49.1158 5.11553 48.9226 5.42614C48.7332 5.73295 48.6385 6.08333 48.6385 6.47727V12H47.2976ZM56.5305 12.1818C55.7124 12.1818 55.0078 11.9886 54.4169 11.6023C53.826 11.2159 53.3714 10.6837 53.0533 10.0057C52.7351 9.32765 52.576 8.55303 52.576 7.68182C52.576 6.79545 52.7389 6.01326 53.0646 5.33523C53.3942 4.65341 53.8525 4.12121 54.4396 3.73864C55.0305 3.35227 55.7199 3.15909 56.5078 3.15909C57.1214 3.15909 57.6745 3.27273 58.1669 3.5C58.6593 3.72727 59.0627 4.04545 59.3771 4.45455C59.6915 4.86364 59.8866 5.34091 59.9624 5.88636H58.6214C58.5192 5.48864 58.2919 5.13636 57.9396 4.82955C57.5911 4.51894 57.1214 4.36364 56.5305 4.36364C56.0078 4.36364 55.5495 4.5 55.1555 4.77273C54.7654 5.04167 54.4605 5.42235 54.2408 5.91477C54.0249 6.40341 53.9169 6.97727 53.9169 7.63636C53.9169 8.31061 54.023 8.89773 54.2351 9.39773C54.451 9.89773 54.754 10.286 55.1442 10.5625C55.5381 10.839 56.0002 10.9773 56.5305 10.9773C56.879 10.9773 57.1953 10.9167 57.4794 10.7955C57.7635 10.6742 58.004 10.5 58.201 10.2727C58.398 10.0455 58.5381 9.77273 58.6214 9.45455H59.9624C59.8866 9.9697 59.6991 10.4337 59.3999 10.8466C59.1044 11.2557 58.7124 11.5814 58.2237 11.8239C57.7389 12.0625 57.1745 12.1818 56.5305 12.1818ZM64.4908 12.2045C63.9377 12.2045 63.4358 12.1004 62.9851 11.892C62.5343 11.6799 62.1764 11.375 61.9112 10.9773C61.6461 10.5758 61.5135 10.0909 61.5135 9.52273C61.5135 9.02273 61.612 8.61742 61.8089 8.30682C62.0059 7.99242 62.2692 7.74621 62.5987 7.56818C62.9283 7.39015 63.2919 7.25758 63.6896 7.17045C64.0911 7.07955 64.4946 7.00758 64.8999 6.95455C65.4302 6.88636 65.8601 6.83523 66.1896 6.80114C66.523 6.76326 66.7654 6.70076 66.9169 6.61364C67.0722 6.52652 67.1499 6.375 67.1499 6.15909V6.11364C67.1499 5.55303 66.9964 5.11742 66.6896 4.80682C66.3866 4.49621 65.9264 4.34091 65.3089 4.34091C64.6688 4.34091 64.1669 4.48106 63.8033 4.76136C63.4396 5.04167 63.1839 5.34091 63.0362 5.65909L61.7635 5.20455C61.9908 4.67424 62.2938 4.26136 62.6726 3.96591C63.0552 3.66667 63.4718 3.45833 63.9226 3.34091C64.3771 3.2197 64.8241 3.15909 65.2635 3.15909C65.5438 3.15909 65.8658 3.19318 66.2294 3.26136C66.5968 3.32576 66.951 3.46023 67.2919 3.66477C67.6366 3.86932 67.9226 4.17803 68.1499 4.59091C68.3771 5.00379 68.4908 5.55682 68.4908 6.25V12H67.1499V10.8182H67.0817C66.9908 11.0076 66.8393 11.2102 66.6271 11.4261C66.415 11.642 66.1328 11.8258 65.7805 11.9773C65.4283 12.1288 64.9983 12.2045 64.4908 12.2045ZM64.6953 11C65.2256 11 65.6726 10.8958 66.0362 10.6875C66.4036 10.4792 66.6802 10.2102 66.8658 9.88068C67.0552 9.55114 67.1499 9.20455 67.1499 8.84091V7.61364C67.093 7.68182 66.968 7.74432 66.7749 7.80114C66.5855 7.85417 66.3658 7.90151 66.1158 7.94318C65.8696 7.98106 65.629 8.01515 65.3942 8.04545C65.1631 8.07197 64.9756 8.0947 64.8317 8.11364C64.4832 8.15909 64.1574 8.23295 63.8544 8.33523C63.5552 8.43371 63.3127 8.58333 63.1271 8.78409C62.9453 8.98106 62.8544 9.25 62.8544 9.59091C62.8544 10.0568 63.0268 10.4091 63.3714 10.6477C63.7199 10.8826 64.1612 11 64.6953 11ZM70.9382 12V3.27273H72.2337V4.59091H72.3246C72.4837 4.15909 72.7715 3.80871 73.1882 3.53977C73.6049 3.27083 74.0746 3.13636 74.5973 3.13636C74.6958 3.13636 74.8189 3.13826 74.9666 3.14205C75.1143 3.14583 75.2261 3.15152 75.3018 3.15909V4.52273C75.2564 4.51136 75.1522 4.49432 74.9893 4.47159C74.8303 4.44508 74.6617 4.43182 74.4837 4.43182C74.0594 4.43182 73.6806 4.52083 73.3473 4.69886C73.0178 4.87311 72.7564 5.11553 72.5632 5.42614C72.3738 5.73295 72.2791 6.08333 72.2791 6.47727V12H70.9382ZM79.9212 12.1818C79.1939 12.1818 78.5518 11.9981 77.995 11.6307C77.4382 11.2595 77.0026 10.7367 76.6882 10.0625C76.3738 9.38447 76.2166 8.58333 76.2166 7.65909C76.2166 6.74242 76.3738 5.94697 76.6882 5.27273C77.0026 4.59848 77.4401 4.07765 78.0007 3.71023C78.5613 3.3428 79.209 3.15909 79.9439 3.15909C80.5121 3.15909 80.9609 3.25379 81.2905 3.44318C81.6238 3.62879 81.8776 3.84091 82.0518 4.07955C82.2299 4.31439 82.3681 4.50758 82.4666 4.65909H82.5803V0.363636H83.9212V12H82.6257V10.6591H82.4666C82.3681 10.8182 82.228 11.0189 82.0462 11.2614C81.8643 11.5 81.6049 11.714 81.2678 11.9034C80.9306 12.089 80.4818 12.1818 79.9212 12.1818ZM80.103 10.9773C80.6409 10.9773 81.0954 10.8371 81.4666 10.5568C81.8378 10.2727 82.12 9.88068 82.3132 9.38068C82.5064 8.87689 82.603 8.29545 82.603 7.63636C82.603 6.98485 82.5083 6.41477 82.3189 5.92614C82.1295 5.43371 81.8492 5.05114 81.478 4.77841C81.1068 4.50189 80.6484 4.36364 80.103 4.36364C79.5348 4.36364 79.0613 4.50947 78.6825 4.80114C78.3075 5.08902 78.0253 5.48106 77.8359 5.97727C77.6503 6.4697 77.5575 7.02273 77.5575 7.63636C77.5575 8.25758 77.6522 8.82197 77.8416 9.32955C78.0348 9.83333 78.3189 10.2348 78.6939 10.5341C79.0727 10.8295 79.5424 10.9773 80.103 10.9773Z" fill="#5D5D5D"/>
</svg>
