<svg width="20" height="19" viewBox="0 0 20 19" fill="none" xmlns="http://www.w3.org/2000/svg">
<path d="M13.6237 11.2745C15.9045 8.05392 15.1417 3.59432 11.9211 1.31412C8.70047 -0.966076 4.24087 -0.20383 1.96067 3.01733C-0.31953 6.23794 0.442716 10.697 3.66387 12.9772C5.96259 14.6047 9.00177 14.73 11.4264 13.2981L16.6945 18.5347C17.2633 19.1335 18.2097 19.1574 18.8085 18.5886C19.4073 18.0203 19.4313 17.0739 18.863 16.4751C18.845 16.4561 18.8276 16.4386 18.8085 16.4206L13.6237 11.2745ZM7.78785 11.7627C5.24285 11.7633 3.1795 9.70155 3.17786 7.15656C3.17732 4.61156 5.23903 2.54821 7.78457 2.54712C10.3263 2.54603 12.3886 4.60448 12.3935 7.1462C12.3978 9.69174 10.3372 11.7584 7.79111 11.7627H7.78785Z" fill="#272727"/>
</svg>
