
<svg width="32" height="13" viewBox="0 0 32 13" fill="none" xmlns="http://www.w3.org/2000/svg">
<path d="M2.38636 0.363636L5.84091 10.1591H5.97727L9.43182 0.363636H10.9091L6.63636 12H5.18182L0.909091 0.363636H2.38636ZM12.5398 12V3.27273H13.8807V12H12.5398ZM13.2216 1.81818C12.9602 1.81818 12.7348 1.72917 12.5455 1.55114C12.3598 1.37311 12.267 1.15909 12.267 0.909091C12.267 0.659091 12.3598 0.445076 12.5455 0.267045C12.7348 0.089015 12.9602 0 13.2216 0C13.483 0 13.7064 0.089015 13.892 0.267045C14.0814 0.445076 14.1761 0.659091 14.1761 0.909091C14.1761 1.15909 14.0814 1.37311 13.892 1.55114C13.7064 1.72917 13.483 1.81818 13.2216 1.81818ZM22.5185 5.22727L21.3139 5.56818C21.2382 5.36742 21.1264 5.17235 20.9787 4.98295C20.8348 4.78977 20.6378 4.63068 20.3878 4.50568C20.1378 4.38068 19.8177 4.31818 19.4276 4.31818C18.8935 4.31818 18.4484 4.44129 18.0923 4.6875C17.7401 4.92992 17.5639 5.23864 17.5639 5.61364C17.5639 5.94697 17.6851 6.21023 17.9276 6.40341C18.17 6.59659 18.5488 6.75758 19.0639 6.88636L20.3594 7.20455C21.1397 7.39394 21.7211 7.68371 22.1037 8.07386C22.4863 8.46023 22.6776 8.95833 22.6776 9.56818C22.6776 10.0682 22.5336 10.5152 22.2457 10.9091C21.9616 11.303 21.5639 11.6136 21.0526 11.8409C20.5412 12.0682 19.9465 12.1818 19.2685 12.1818C18.3783 12.1818 17.6416 11.9886 17.0582 11.6023C16.4749 11.2159 16.1056 10.6515 15.9503 9.90909L17.223 9.59091C17.3442 10.0606 17.5734 10.4129 17.9105 10.6477C18.2514 10.8826 18.6965 11 19.2457 11C19.8707 11 20.367 10.8674 20.7344 10.6023C21.1056 10.3333 21.2912 10.0114 21.2912 9.63636C21.2912 9.33333 21.1851 9.07955 20.973 8.875C20.7609 8.66667 20.4351 8.51136 19.9957 8.40909L18.5412 8.06818C17.742 7.87879 17.1548 7.58523 16.7798 7.1875C16.4086 6.78598 16.223 6.28409 16.223 5.68182C16.223 5.18939 16.3613 4.75379 16.6378 4.375C16.9181 3.99621 17.2988 3.69886 17.7798 3.48295C18.2647 3.26705 18.8139 3.15909 19.4276 3.15909C20.2912 3.15909 20.9692 3.34848 21.4616 3.72727C21.9579 4.10606 22.3101 4.60606 22.5185 5.22727ZM27.2642 12.2045C26.7112 12.2045 26.2093 12.1004 25.7585 11.892C25.3078 11.6799 24.9498 11.375 24.6847 10.9773C24.4195 10.5758 24.2869 10.0909 24.2869 9.52273C24.2869 9.02273 24.3854 8.61742 24.5824 8.30682C24.7794 7.99242 25.0426 7.74621 25.3722 7.56818C25.7017 7.39015 26.0653 7.25758 26.4631 7.17045C26.8646 7.07955 27.268 7.00758 27.6733 6.95455C28.2036 6.88636 28.6335 6.83523 28.9631 6.80114C29.2964 6.76326 29.5388 6.70076 29.6903 6.61364C29.8456 6.52652 29.9233 6.375 29.9233 6.15909V6.11364C29.9233 5.55303 29.7699 5.11742 29.4631 4.80682C29.16 4.49621 28.6998 4.34091 28.0824 4.34091C27.4422 4.34091 26.9403 4.48106 26.5767 4.76136C26.2131 5.04167 25.9574 5.34091 25.8097 5.65909L24.5369 5.20455C24.7642 4.67424 25.0672 4.26136 25.446 3.96591C25.8286 3.66667 26.2453 3.45833 26.696 3.34091C27.1506 3.2197 27.5975 3.15909 28.0369 3.15909C28.3172 3.15909 28.6392 3.19318 29.0028 3.26136C29.3703 3.32576 29.7244 3.46023 30.0653 3.66477C30.41 3.86932 30.696 4.17803 30.9233 4.59091C31.1506 5.00379 31.2642 5.55682 31.2642 6.25V12H29.9233V10.8182H29.8551C29.7642 11.0076 29.6127 11.2102 29.4006 11.4261C29.1884 11.642 28.9063 11.8258 28.554 11.9773C28.2017 12.1288 27.7718 12.2045 27.2642 12.2045ZM27.4688 11C27.9991 11 28.446 10.8958 28.8097 10.6875C29.1771 10.4792 29.4536 10.2102 29.6392 9.88068C29.8286 9.55114 29.9233 9.20455 29.9233 8.84091V7.61364C29.8665 7.68182 29.7415 7.74432 29.5483 7.80114C29.3589 7.85417 29.1392 7.90151 28.8892 7.94318C28.643 7.98106 28.4025 8.01515 28.1676 8.04545C27.9366 8.07197 27.7491 8.0947 27.6051 8.11364C27.2566 8.15909 26.9309 8.23295 26.6278 8.33523C26.3286 8.43371 26.0862 8.58333 25.9006 8.78409C25.7188 8.98106 25.6278 9.25 25.6278 9.59091C25.6278 10.0568 25.8002 10.4091 26.1449 10.6477C26.4934 10.8826 26.9347 11 27.4688 11Z" fill="#5D5D5D"/>
</svg>
